<svg xmlns="http://www.w3.org/2000/svg" width="1200" height="630" viewBox="0 0 1200 630">
<defs><linearGradient id="bg" x2="1" y2="1"><stop stop-color="#071326"/><stop offset="1" stop-color="#050b17"/></linearGradient><linearGradient id="blue" x2="1" y2="1"><stop stop-color="#0bb8ff"/><stop offset="1" stop-color="#0052ff"/></linearGradient><radialGradient id="glow"><stop stop-color="#236dcb" stop-opacity=".55"/><stop offset="1" stop-color="#236dcb" stop-opacity="0"/></radialGradient></defs>
<rect width="1200" height="630" fill="url(#bg)"/><circle cx="940" cy="250" r="400" fill="url(#glow)"/><path d="M0 540Q600 350 1200 520" fill="none" stroke="#23558c" stroke-opacity=".4" stroke-width="2"/><path d="M0 570Q600 380 1200 550" fill="none" stroke="#23558c" stroke-opacity=".25" stroke-width="2"/>
<g transform="translate(80 76)"><rect width="79" height="79" rx="20" fill="#0c2141" stroke="#266bc7"/><path d="M17 22c18 2 34-2 45-12v46c0 15-11 19-22 19S17 70 17 56V22Zm13-2v53m12-57v57m12-62v58M17 41h45" fill="none" stroke="url(#blue)" stroke-width="5" stroke-linecap="round" stroke-linejoin="round"/></g>
<text x="177" y="114" font-family="Outfit,Arial,sans-serif" font-size="39" font-weight="700" fill="#eaf1ff">Kinnor Live</text><text x="178" y="140" font-family="Outfit,Arial,sans-serif" font-size="11" letter-spacing="5" fill="#90bafa">SUA IGREJA AO VIVO</text>
<text x="80" y="302" font-family="Outfit,Arial,sans-serif" font-size="65" font-weight="700" fill="#eaf1ff">Sua igreja ao vivo,</text><text x="80" y="384" font-family="Outfit,Arial,sans-serif" font-size="65" font-weight="700" fill="#66a6ff">com o que vocês já têm.</text><text x="82" y="449" font-family="Outfit,Arial,sans-serif" font-size="27" fill="#a9bdd9">Áudio da mesa · Celulares como câmeras · Transmissão</text>
<rect x="80" y="530" width="262" height="46" rx="23" fill="#1355bb"/><text x="211" y="560" text-anchor="middle" font-family="Outfit,Arial,sans-serif" font-size="19" font-weight="600" fill="#fff">Feito para servir</text>
</svg>
